<svg xmlns="http://www.w3.org/2000/svg" xml:space="preserve" width="256" height="256"><path d="m83.402 161.031-21.401 11.28-19.18 10.067-19.775 10.425h-.037v-20.437c0-.12 0-.257.037-.386.12-3.242 1.975-6.237 4.868-7.761l19.684-10.37 20.143-10.582a71.3 71.3 0 0 0 15.661 17.764m149.481 11.335v20.446h-.027l-19.794-10.434-19.16-10.067-21.42-11.27a70.7 70.7 0 0 0 15.632-17.81l20.171 10.627 19.657 10.36a9.19 9.19 0 0 1 4.941 8.157" style="fill:#009e92;stroke-width:9.18527"/><path fill="#abd9d5" d="M188.114 143.23a70.7 70.7 0 0 1-15.633 17.81l-40.25-21.19a9.12 9.12 0 0 0-8.57 0l-40.259 21.19a71.2 71.2 0 0 1-15.651-17.782l55.91-29.43c2.664-1.396 5.879-1.396 8.57 0z" style="stroke-width:9.18527"/><path fill="#8bbe29" d="M123.652 224.933 23 171.971v20.437a9.21 9.21 0 0 0 4.923 8.148l95.73 50.39a9.26 9.26 0 0 0 8.578 0l95.73-50.39a9.23 9.23 0 0 0 4.922-8.148v-20.437l-100.652 52.962a9.22 9.22 0 0 1-8.579 0" style="stroke-width:9.18527"/><path fill="#00a0dc" d="M127.942 4c-51.622 0-93.47 41.848-93.47 93.47 0 51.62 41.858 93.469 93.47 93.469 51.62 0 93.469-41.84 93.469-93.47C221.411 45.85 179.563 4 127.941 4m0 164.187a70.717 70.717 0 1 1 0-141.435 70.727 70.727 0 0 1 0 141.435" style="stroke-width:9.185;stroke-dasharray:none;fill:#f60"/><circle cx="127.177" cy="97.959" r="84" style="fill:#f60;stroke-width:.746744;fill-opacity:1"/><g transform="translate(87.708 58.46)"><circle cx="-1.218" cy="80.187" r="10.5" style="fill:#fff;stroke-width:.0933434"/><text xml:space="preserve" x="-25.608" y="55.654" style="font-style:normal;font-weight:400;font-size:62.9995px;line-height:1.25;font-family:sans-serif;letter-spacing:0;word-spacing:0;fill:#fff;fill-opacity:1;stroke:none;stroke-width:1.4"><tspan x="-25.608" y="55.654" style="font-style:normal;font-variant:normal;font-weight:700;font-stretch:normal;font-size:62.9995px;font-family:&quot;Microsoft YaHei&quot;;-inkscape-font-specification:&quot;Microsoft YaHei Bold&quot;;fill:#fff;stroke-width:1.4">Edit</tspan></text><text xml:space="preserve" x="16.701" y="83.759" style="font-style:normal;font-weight:400;font-size:31.4998px;line-height:1.25;font-family:sans-serif;letter-spacing:0;word-spacing:0;fill:#fff;fill-opacity:1;stroke:none;stroke-width:1.4"><tspan x="16.701" y="83.759" style="font-style:normal;font-variant:normal;font-weight:700;font-stretch:normal;font-size:31.4998px;font-family:&quot;Microsoft YaHei&quot;;-inkscape-font-specification:&quot;Microsoft YaHei Bold&quot;;fill:#fff;stroke-width:1.4">Fund</tspan></text></g></svg>